<?xml version="1.0" encoding="UTF-8" standalone="no"?>
<!DOCTYPE svg PUBLIC "-//W3C//DTD SVG 1.1//EN"
 "http://www.w3.org/Graphics/SVG/1.1/DTD/svg11.dtd">
<!-- Generated by graphviz version 2.40.1 (20161225.0304)
 -->
<!-- Title: %3 Pages: 1 -->
<svg width="631pt" height="404pt"
 viewBox="0.00 0.00 631.44 404.00" xmlns="http://www.w3.org/2000/svg" xmlns:xlink="http://www.w3.org/1999/xlink">
<g id="graph0" class="graph" transform="scale(1 1) rotate(0) translate(4 400)">
<title>%3</title>
<polygon fill="#ffffff" stroke="transparent" points="-4,4 -4,-400 627.4364,-400 627.4364,4 -4,4"/>
<!-- [root] aws_instance.secondserver -->
<g id="node1" class="node">
<title>[root] aws_instance.secondserver</title>
<polygon fill="none" stroke="#000000" points="558.5578,-252 391.1219,-252 391.1219,-216 558.5578,-216 558.5578,-252"/>
<text text-anchor="middle" x="474.8398" y="-229.8" font-family="Times,serif" font-size="14.00" fill="#000000">aws_instance.secondserver</text>
</g>
<!-- [root] aws_subnet.terra&#45;subnet&#45;2 -->
<g id="node4" class="node">
<title>[root] aws_subnet.terra&#45;subnet&#45;2</title>
<polygon fill="none" stroke="#000000" points="454.682,-180 290.9977,-180 290.9977,-144 454.682,-144 454.682,-180"/>
<text text-anchor="middle" x="372.8398" y="-157.8" font-family="Times,serif" font-size="14.00" fill="#000000">aws_subnet.terra&#45;subnet&#45;2</text>
</g>
<!-- [root] aws_instance.secondserver&#45;&gt;[root] aws_subnet.terra&#45;subnet&#45;2 -->
<g id="edge1" class="edge">
<title>[root] aws_instance.secondserver&#45;&gt;[root] aws_subnet.terra&#45;subnet&#45;2</title>
<path fill="none" stroke="#000000" d="M449.1009,-215.8314C436.2961,-206.7927 420.649,-195.7476 406.8679,-186.0198"/>
<polygon fill="#000000" stroke="#000000" points="408.7586,-183.0703 398.5705,-180.1628 404.7218,-188.7891 408.7586,-183.0703"/>
</g>
<!-- [root] data.aws_ami.ubuntu -->
<g id="node6" class="node">
<title>[root] data.aws_ami.ubuntu</title>
<polygon fill="none" stroke="#000000" points="531.3125,-108 396.3672,-108 396.3672,-72 531.3125,-72 531.3125,-108"/>
<text text-anchor="middle" x="463.8398" y="-85.8" font-family="Times,serif" font-size="14.00" fill="#000000">data.aws_ami.ubuntu</text>
</g>
<!-- [root] aws_instance.secondserver&#45;&gt;[root] data.aws_ami.ubuntu -->
<g id="edge2" class="edge">
<title>[root] aws_instance.secondserver&#45;&gt;[root] data.aws_ami.ubuntu</title>
<path fill="none" stroke="#000000" d="M473.4467,-215.7623C471.5705,-191.201 468.2129,-147.2474 466.0058,-118.3541"/>
<polygon fill="#000000" stroke="#000000" points="469.4733,-117.794 465.2217,-108.0896 462.4936,-118.3272 469.4733,-117.794"/>
</g>
<!-- [root] aws_security_group.terra&#45;sec&#45;grp -->
<g id="node2" class="node">
<title>[root] aws_security_group.terra&#45;sec&#45;grp</title>
<polygon fill="none" stroke="#000000" points="373.5958,-252 170.0838,-252 170.0838,-216 373.5958,-216 373.5958,-252"/>
<text text-anchor="middle" x="271.8398" y="-229.8" font-family="Times,serif" font-size="14.00" fill="#000000">aws_security_group.terra&#45;sec&#45;grp</text>
</g>
<!-- [root] aws_vpc.new_vpc -->
<g id="node5" class="node">
<title>[root] aws_vpc.new_vpc</title>
<polygon fill="none" stroke="#000000" points="359.3643,-108 240.3154,-108 240.3154,-72 359.3643,-72 359.3643,-108"/>
<text text-anchor="middle" x="299.8398" y="-85.8" font-family="Times,serif" font-size="14.00" fill="#000000">aws_vpc.new_vpc</text>
</g>
<!-- [root] aws_security_group.terra&#45;sec&#45;grp&#45;&gt;[root] aws_vpc.new_vpc -->
<g id="edge3" class="edge">
<title>[root] aws_security_group.terra&#45;sec&#45;grp&#45;&gt;[root] aws_vpc.new_vpc</title>
<path fill="none" stroke="#000000" d="M272.7274,-215.8882C273.8865,-197.5824 276.4438,-168.5682 281.8398,-144 283.7389,-135.3539 286.5128,-126.1468 289.3169,-117.83"/>
<polygon fill="#000000" stroke="#000000" points="292.6791,-118.8191 292.6954,-108.2243 286.0756,-116.4965 292.6791,-118.8191"/>
</g>
<!-- [root] aws_subnet.terra&#45;subnet -->
<g id="node3" class="node">
<title>[root] aws_subnet.terra&#45;subnet</title>
<polygon fill="none" stroke="#000000" points="151.5199,-252 .1598,-252 .1598,-216 151.5199,-216 151.5199,-252"/>
<text text-anchor="middle" x="75.8398" y="-229.8" font-family="Times,serif" font-size="14.00" fill="#000000">aws_subnet.terra&#45;subnet</text>
</g>
<!-- [root] aws_subnet.terra&#45;subnet&#45;&gt;[root] aws_vpc.new_vpc -->
<g id="edge4" class="edge">
<title>[root] aws_subnet.terra&#45;subnet&#45;&gt;[root] aws_vpc.new_vpc</title>
<path fill="none" stroke="#000000" d="M104.2096,-215.7623C144.604,-189.7945 218.7185,-142.1495 263.2148,-113.5446"/>
<polygon fill="#000000" stroke="#000000" points="265.1813,-116.4414 271.7004,-108.0896 261.396,-110.5531 265.1813,-116.4414"/>
</g>
<!-- [root] aws_subnet.terra&#45;subnet&#45;2&#45;&gt;[root] aws_vpc.new_vpc -->
<g id="edge5" class="edge">
<title>[root] aws_subnet.terra&#45;subnet&#45;2&#45;&gt;[root] aws_vpc.new_vpc</title>
<path fill="none" stroke="#000000" d="M354.4189,-143.8314C345.6869,-135.219 335.1081,-124.7851 325.5975,-115.4048"/>
<polygon fill="#000000" stroke="#000000" points="327.8324,-112.6931 318.2549,-108.1628 322.9169,-117.6769 327.8324,-112.6931"/>
</g>
<!-- [root] provider.aws -->
<g id="node7" class="node">
<title>[root] provider.aws</title>
<polygon fill="none" stroke="#000000" points="371.8398,-36 293.2315,-18 371.8398,0 450.4482,-18 371.8398,-36"/>
<text text-anchor="middle" x="371.8398" y="-13.8" font-family="Times,serif" font-size="14.00" fill="#000000">provider.aws</text>
</g>
<!-- [root] aws_vpc.new_vpc&#45;&gt;[root] provider.aws -->
<g id="edge6" class="edge">
<title>[root] aws_vpc.new_vpc&#45;&gt;[root] provider.aws</title>
<path fill="none" stroke="#000000" d="M318.0085,-71.8314C327.5692,-62.2706 339.3748,-50.4651 349.4917,-40.3481"/>
<polygon fill="#000000" stroke="#000000" points="352.2377,-42.5519 356.8339,-33.0059 347.2879,-37.6021 352.2377,-42.5519"/>
</g>
<!-- [root] data.aws_ami.ubuntu&#45;&gt;[root] provider.aws -->
<g id="edge7" class="edge">
<title>[root] data.aws_ami.ubuntu&#45;&gt;[root] provider.aws</title>
<path fill="none" stroke="#000000" d="M440.6244,-71.8314C427.5761,-61.6197 411.2557,-48.8472 397.787,-38.3065"/>
<polygon fill="#000000" stroke="#000000" points="399.8563,-35.4815 389.8241,-32.0747 395.5421,-40.9941 399.8563,-35.4815"/>
</g>
<!-- [root] meta.count&#45;boundary (count boundary fixup) -->
<g id="node8" class="node">
<title>[root] meta.count&#45;boundary (count boundary fixup)</title>
<ellipse fill="none" stroke="#000000" cx="431.8398" cy="-306" rx="191.6931" ry="18"/>
<text text-anchor="middle" x="431.8398" y="-301.8" font-family="Times,serif" font-size="14.00" fill="#000000">[root] meta.count&#45;boundary (count boundary fixup)</text>
</g>
<!-- [root] meta.count&#45;boundary (count boundary fixup)&#45;&gt;[root] aws_instance.secondserver -->
<g id="edge8" class="edge">
<title>[root] meta.count&#45;boundary (count boundary fixup)&#45;&gt;[root] aws_instance.secondserver</title>
<path fill="none" stroke="#000000" d="M442.6906,-287.8314C447.5421,-279.7079 453.3615,-269.9637 458.7078,-261.0118"/>
<polygon fill="#000000" stroke="#000000" points="461.7205,-262.7933 463.843,-252.4133 455.7107,-259.2041 461.7205,-262.7933"/>
</g>
<!-- [root] meta.count&#45;boundary (count boundary fixup)&#45;&gt;[root] aws_security_group.terra&#45;sec&#45;grp -->
<g id="edge9" class="edge">
<title>[root] meta.count&#45;boundary (count boundary fixup)&#45;&gt;[root] aws_security_group.terra&#45;sec&#45;grp</title>
<path fill="none" stroke="#000000" d="M392.2893,-288.2022C370.8171,-278.5397 344.069,-266.5031 321.237,-256.2287"/>
<polygon fill="#000000" stroke="#000000" points="322.6023,-253.0051 312.0468,-252.0931 319.7297,-259.3886 322.6023,-253.0051"/>
</g>
<!-- [root] meta.count&#45;boundary (count boundary fixup)&#45;&gt;[root] aws_subnet.terra&#45;subnet -->
<g id="edge10" class="edge">
<title>[root] meta.count&#45;boundary (count boundary fixup)&#45;&gt;[root] aws_subnet.terra&#45;subnet</title>
<path fill="none" stroke="#000000" d="M348.763,-289.7138C297.6224,-279.6253 230.454,-266.2627 161.946,-252.2163"/>
<polygon fill="#000000" stroke="#000000" points="162.33,-248.7222 151.8303,-250.1393 160.922,-255.5792 162.33,-248.7222"/>
</g>
<!-- [root] provider.aws (close) -->
<g id="node9" class="node">
<title>[root] provider.aws (close)</title>
<ellipse fill="none" stroke="#000000" cx="117.8398" cy="-306" rx="104.3276" ry="18"/>
<text text-anchor="middle" x="117.8398" y="-301.8" font-family="Times,serif" font-size="14.00" fill="#000000">[root] provider.aws (close)</text>
</g>
<!-- [root] provider.aws (close)&#45;&gt;[root] aws_instance.secondserver -->
<g id="edge11" class="edge">
<title>[root] provider.aws (close)&#45;&gt;[root] aws_instance.secondserver</title>
<path fill="none" stroke="#000000" d="M185.8291,-292.2879C241.1163,-281.1375 319.7228,-265.2841 381.0033,-252.925"/>
<polygon fill="#000000" stroke="#000000" points="381.959,-256.3028 391.0696,-250.8948 380.575,-249.441 381.959,-256.3028"/>
</g>
<!-- [root] provider.aws (close)&#45;&gt;[root] aws_security_group.terra&#45;sec&#45;grp -->
<g id="edge12" class="edge">
<title>[root] provider.aws (close)&#45;&gt;[root] aws_security_group.terra&#45;sec&#45;grp</title>
<path fill="none" stroke="#000000" d="M154.3357,-288.937C175.1155,-279.2218 201.3971,-266.9343 223.833,-256.4448"/>
<polygon fill="#000000" stroke="#000000" points="225.6092,-259.478 233.1857,-252.0721 222.6445,-253.1368 225.6092,-259.478"/>
</g>
<!-- [root] provider.aws (close)&#45;&gt;[root] aws_subnet.terra&#45;subnet -->
<g id="edge13" class="edge">
<title>[root] provider.aws (close)&#45;&gt;[root] aws_subnet.terra&#45;subnet</title>
<path fill="none" stroke="#000000" d="M107.2415,-287.8314C102.5521,-279.7925 96.937,-270.1666 91.7601,-261.2918"/>
<polygon fill="#000000" stroke="#000000" points="94.6429,-259.2875 86.5809,-252.4133 88.5964,-262.8146 94.6429,-259.2875"/>
</g>
<!-- [root] root -->
<g id="node10" class="node">
<title>[root] root</title>
<ellipse fill="none" stroke="#000000" cx="274.8398" cy="-378" rx="46.8976" ry="18"/>
<text text-anchor="middle" x="274.8398" y="-373.8" font-family="Times,serif" font-size="14.00" fill="#000000">[root] root</text>
</g>
<!-- [root] root&#45;&gt;[root] meta.count&#45;boundary (count boundary fixup) -->
<g id="edge14" class="edge">
<title>[root] root&#45;&gt;[root] meta.count&#45;boundary (count boundary fixup)</title>
<path fill="none" stroke="#000000" d="M305.111,-364.1177C327.4906,-353.8544 358.4087,-339.6754 384.1031,-327.892"/>
<polygon fill="#000000" stroke="#000000" points="385.677,-331.0208 393.3077,-323.6708 382.7589,-324.658 385.677,-331.0208"/>
</g>
<!-- [root] root&#45;&gt;[root] provider.aws (close) -->
<g id="edge15" class="edge">
<title>[root] root&#45;&gt;[root] provider.aws (close)</title>
<path fill="none" stroke="#000000" d="M244.5687,-364.1177C221.7129,-353.6361 189.9515,-339.0703 163.9437,-327.1432"/>
<polygon fill="#000000" stroke="#000000" points="165.1981,-323.868 154.6494,-322.8808 162.2801,-330.2308 165.1981,-323.868"/>
</g>
</g>
</svg>
